PathFileType  4	(X/Y/Z)
DataRate	CameraRate	NumFrames	NumMarkers	Units	OrigDataRate	OrigDataStartFrame	OrigNumFrames
	100.0 	100.0	9	50	mm	100.0	199	265
Frame#	Time	R.Shoulder			R.Clavicle			R.Bicep			R.Elbow			R.Forearm			R.Wrist			L.Shoulder			L.Clavicle			L.Scapula			L.Bicep			L.Elbow			L.Forearm			L.Wrist			R.ASIS			R.Iliac			S2			L.Iliac			L.ASIS			R.TH1			R.TH2			R.TH3			R.Knee			R.SH1			R.SH2			R.SH3			R.SH4			R.Ankle			R.Heel			R.MT5			L.TH1			L.TH2			L.TH3			L.TH4			L.Knee			L.SH1			L.SH2			L.SH3			L.Ankle			L.Heel			L.MT5			R.MKnee			L.MKnee			R.MAnkle			L.MAnkle			R.MElbow			L.MElbow			R.PSIS			L.PSIS			R_HJC			L_HJC			
		X1	Y1	Z1	X2	Y2	Z2	X3	Y3	Z3	X4	Y4	Z4	X5	Y5	Z5	X6	Y6	Z6	X7	Y7	Z7	X8	Y8	Z8	X9	Y9	Z9	X10	Y10	Z10	X11	Y11	Z11	X12	Y12	Z12	X13	Y13	Z13	X14	Y14	Z14	X15	Y15	Z15	X16	Y16	Z16	X17	Y17	Z17	X18	Y18	Z18	X19	Y19	Z19	X20	Y20	Z20	X21	Y21	Z21	X22	Y22	Z22	X23	Y23	Z23	X24	Y24	Z24	X25	Y25	Z25	X26	Y26	Z26	X27	Y27	Z27	X28	Y28	Z28	X29	Y29	Z29	X30	Y30	Z30	X31	Y31	Z31	X32	Y32	Z32	X33	Y33	Z33	X34	Y34	Z34	X35	Y35	Z35	X36	Y36	Z36	X37	Y37	Z37	X38	Y38	Z38	X39	Y39	Z39	X40	Y40	Z40	X41	Y41	Z41	X42	Y42	Z42	X43	Y43	Z43	X44	Y44	Z44	X45	Y45	Z45	X46	Y46	Z46	X47	Y47	Z47	X48	Y48	Z48	X49	Y49	Z49	X50	Y50	Z50	

199	1.98000	272.406	5.476	1423.159	333.786	166.353	1412.104	295.363	-7.741	1247.901	221.670	-51.471	1110.831	319.075	-43.323	994.156	324.774	-81.314	890.266	218.093	392.097	1428.623	337.102	231.289	1414.772	129.843	250.288	1313.728	261.969	398.089	1259.376	184.138	425.546	1120.718	266.896	438.995	1007.928	257.076	463.612	888.617	359.576	49.766	958.293	265.648	34.351	1045.551	179.610	200.424	991.291	283.825	357.671	1037.994	375.006	327.363	951.949	370.619	72.076	717.698	356.351	81.692	632.589	243.255	-12.250	640.636	223.696	19.118	496.608	277.022	48.857	360.576	268.920	51.773	287.201	176.198	-5.287	366.952	167.511	-0.951	293.091	209.373	34.473	100.051	144.881	95.344	54.492	333.153	4.798	35.794	372.561	348.187	745.335	366.987	337.477	661.432	231.079	396.876	750.102	226.462	384.741	662.444	235.294	359.733	501.840	265.157	353.920	377.854	265.259	354.589	302.839	150.020	363.783	301.556	211.705	349.970	94.997	149.815	283.979	42.510	324.275	386.770	35.236	217.960	168.558	500.857	237.602	211.131	501.845	246.821	129.594	116.347	242.116	256.483	109.949	238.276	55.361	1091.715	240.732	325.433	1099.184	178.920	149.407	1006.368	186.287	250.342	1003.880	277.852	88.835	871.306	286.608	298.410	866.735
200	1.99000	272.553	5.311	1423.245	333.907	166.313	1412.129	295.363	-7.741	1247.901	221.773	-51.315	1110.934	319.306	-43.318	993.947	324.774	-81.314	890.266	218.150	392.099	1428.693	337.084	231.219	1414.699	129.843	250.288	1313.728	262.014	398.056	1259.220	184.350	425.450	1120.639	267.121	438.955	1007.950	257.158	463.749	888.604	359.576	49.766	958.293	265.648	34.351	1045.551	179.660	200.518	991.490	284.302	357.657	1038.063	375.250	327.102	951.918	370.767	72.021	717.761	356.354	81.612	632.489	243.317	-12.259	640.557	223.712	18.933	496.672	277.010	48.991	360.589	268.920	51.773	287.201	176.207	-5.386	366.997	167.405	-1.061	293.164	209.373	34.473	100.051	144.881	95.344	54.492	333.153	4.798	35.794	372.561	348.187	745.335	366.987	337.477	661.432	231.079	396.876	750.102	226.541	384.741	662.240	235.174	359.876	501.754	265.223	353.912	377.935	265.259	354.589	302.839	150.107	363.800	301.559	211.683	349.876	94.906	149.815	283.979	42.510	324.275	386.770	35.236	217.960	168.558	500.857	237.602	211.131	501.845	246.821	129.594	116.347	242.488	256.529	109.826	238.508	55.257	1091.622	241.143	325.321	1099.066	179.182	149.353	1006.310	186.287	250.342	1003.880	277.836	88.797	871.314	286.791	298.364	866.758
201	2.00000	272.553	5.311	1423.245	333.907	166.313	1412.129	295.721	-7.682	1247.996	221.893	-51.384	1111.098	319.323	-43.339	994.060	324.798	-81.474	890.191	218.229	392.095	1428.805	337.202	231.239	1414.817	130.086	250.155	1313.583	261.969	398.089	1259.376	184.350	425.419	1120.683	267.955	439.009	1008.070	257.627	463.713	888.587	359.608	49.698	958.100	265.648	34.351	1045.551	179.660	200.518	991.490	284.302	357.657	1038.063	375.250	327.102	951.918	370.680	71.815	717.710	356.500	81.409	632.441	243.258	-12.348	640.580	223.712	18.933	496.672	277.038	48.739	360.534	268.920	51.773	287.201	176.207	-5.386	366.997	167.539	-1.058	293.009	209.365	34.440	99.987	144.881	95.344	54.492	333.153	4.798	35.794	372.692	348.182	745.315	367.148	337.406	661.507	231.079	396.876	750.102	226.587	384.599	662.229	235.599	359.779	501.596	265.168	353.839	377.898	265.259	354.589	302.839	150.041	363.739	301.596	211.705	349.970	94.997	149.745	283.927	42.409	324.248	386.823	35.383	217.960	168.558	500.857	237.602	211.131	501.845	246.861	129.686	116.458	242.488	256.529	109.826	238.740	55.153	1091.528	241.341	325.283	1099.196	179.182	149.353	1006.310	186.275	250.284	1003.999	277.768	88.821	871.259	286.722	298.389	866.767
202	2.01000	272.553	5.311	1423.245	334.021	166.243	1412.204	295.721	-7.682	1247.996	221.781	-51.536	1110.985	319.556	-43.436	993.882	324.955	-81.596	890.366	218.503	392.119	1428.847	337.202	231.239	1414.817	130.086	250.155	1313.583	262.372	398.165	1259.299	184.779	425.443	1120.697	268.044	439.182	1008.078	257.731	463.673	888.638	359.608	49.698	958.100	265.648	34.351	1045.551	179.660	200.518	991.490	284.479	357.700	1037.998	375.285	326.879	951.946	370.831	71.679	717.672	356.403	81.498	632.483	243.253	-12.439	640.641	223.712	18.933	496.672	277.038	48.739	360.534	268.920	51.773	287.201	176.150	-5.387	367.085	167.405	-1.061	293.164	209.365	34.440	99.987	144.881	95.344	54.492	333.153	4.798	35.794	372.692	348.182	745.315	367.291	337.330	661.593	231.079	396.876	750.102	226.771	384.621	662.243	235.599	359.779	501.596	265.286	353.769	377.855	265.263	354.505	302.933	149.990	363.708	301.657	211.705	349.970	94.997	149.815	283.979	42.510	324.144	386.794	35.269	217.960	168.558	500.857	237.790	210.987	501.774	246.821	129.594	116.347	242.488	256.529	109.826	238.740	55.153	1091.528	241.481	325.272	1099.298	179.182	149.353	1006.310	186.463	250.379	1003.941	277.768	88.778	871.264	286.833	298.341	866.736
203	2.02000	272.553	5.311	1423.245	334.196	166.206	1412.273	295.721	-7.682	1247.996	221.781	-51.536	1110.985	319.556	-43.436	993.882	325.098	-81.626	890.391	218.620	392.304	1428.919	337.202	231.239	1414.817	130.086	250.155	1313.583	262.372	398.165	1259.299	185.448	425.594	1120.709	268.320	439.029	1007.990	257.947	463.386	888.622	359.635	49.537	958.154	265.648	34.351	1045.551	179.343	200.501	991.169	284.479	357.700	1037.998	375.454	326.858	951.935	370.714	71.625	717.695	356.546	81.462	632.532	243.192	-12.543	640.659	223.712	18.933	496.672	277.038	48.739	360.534	268.920	51.773	287.201	176.207	-5.386	366.997	167.343	-1.201	293.215	209.365	34.440	99.987	144.881	95.344	54.492	333.035	4.714	35.725	372.692	348.182	745.315	367.556	337.341	661.570	230.906	396.925	750.281	226.488	384.655	662.409	235.496	359.691	501.641	265.392	353.690	378.024	265.263	354.505	302.933	150.041	363.739	301.596	211.705	349.970	94.997	149.559	283.864	42.265	324.144	386.794	35.269	217.960	168.558	500.857	237.790	210.987	501.774	246.835	129.512	116.367	242.488	256.529	109.826	238.740	55.153	1091.528	241.481	325.272	1099.298	179.022	149.255	1006.403	186.542	250.160	1003.889	277.814	88.671	871.268	286.909	298.232	866.695
204	2.03000	272.776	5.359	1423.117	334.171	166.279	1412.371	295.925	-7.698	1248.078	221.868	-51.794	1111.076	319.564	-43.682	993.905	325.527	-81.541	890.598	218.738	392.490	1428.991	337.202	231.239	1414.817	130.086	250.155	1313.583	262.602	398.126	1259.318	185.700	425.644	1120.597	268.500	438.977	1008.049	257.981	463.325	888.701	359.635	49.537	958.154	265.648	34.351	1045.551	179.294	200.376	991.331	284.479	357.700	1037.998	375.454	326.858	951.935	370.798	71.371	717.420	356.546	81.462	632.532	243.158	-12.589	640.738	223.712	18.933	496.672	277.026	48.872	360.549	268.920	51.773	287.201	176.324	-5.420	367.103	167.343	-1.201	293.215	209.373	34.473	100.051	144.881	95.344	54.492	332.795	4.613	35.698	372.692	348.182	745.315	367.318	337.266	661.404	230.982	396.813	750.187	226.640	384.702	662.359	235.496	359.691	501.641	265.339	353.788	377.969	265.364	354.410	302.935	150.107	363.800	301.559	211.705	349.970	94.997	149.702	283.920	42.488	324.275	386.770	35.236	217.947	168.418	500.960	237.790	210.987	501.774	246.835	129.512	116.367	242.459	256.413	109.930	238.485	54.973	1091.647	241.678	325.383	1099.465	179.022	149.255	1006.403	186.542	250.160	1003.889	277.780	88.654	871.286	286.858	298.215	866.711
205	2.04000	272.776	5.359	1423.117	334.171	166.279	1412.371	295.925	-7.698	1248.078	221.868	-51.794	1111.076	319.683	-43.694	993.966	325.219	-81.782	890.633	218.846	392.473	1429.004	337.528	231.418	1414.878	130.086	250.155	1313.583	262.651	398.054	1259.414	185.934	425.779	1120.618	269.082	439.031	1008.110	258.386	463.329	888.683	359.586	49.106	958.063	265.648	34.351	1045.551	179.556	200.337	991.461	284.443	357.563	1037.910	375.454	326.858	951.935	370.798	71.371	717.420	356.457	81.386	632.449	243.209	-12.584	640.558	223.712	18.933	496.672	277.045	48.589	360.563	268.920	51.773	287.201	176.207	-5.386	366.997	167.335	-1.108	293.267	209.373	34.473	100.051	144.946	95.472	54.354	333.035	4.714	35.725	373.106	348.263	745.336	367.748	337.311	661.577	231.308	396.621	749.947	226.771	384.621	662.243	235.456	359.661	501.735	265.208	353.789	378.008	265.259	354.545	302.886	150.086	363.845	301.519	211.705	349.970	94.997	149.702	283.920	42.488	324.275	386.770	35.236	217.960	168.558	500.857	237.941	210.904	501.914	246.835	129.512	116.367	242.459	256.413	109.930	238.165	54.854	1091.713	242.087	325.533	1099.344	179.382	149.426	1006.305	186.881	250.313	1003.825	277.819	88.594	871.261	287.005	298.151	866.666
206	2.05000	272.933	5.288	1423.094	334.171	166.279	1412.371	295.899	-7.820	1248.193	221.868	-51.794	1111.076	319.564	-43.682	993.905	325.362	-81.957	890.648	218.846	392.473	1429.004	337.202	231.239	1414.817	130.086	250.155	1313.583	262.651	398.054	1259.414	186.145	425.809	1120.687	269.082	439.031	1008.110	258.473	463.359	888.773	359.611	48.975	957.959	266.077	34.364	1045.695	179.556	200.337	991.461	284.590	357.373	1037.911	375.454	326.858	951.935	370.942	71.362	717.411	356.556	81.315	632.524	243.211	-12.698	640.653	223.652	18.725	496.611	277.045	48.589	360.563	268.920	51.773	287.201	176.090	-5.493	367.105	167.343	-1.201	293.215	209.373	34.473	100.051	144.946	95.472	54.354	333.035	4.714	35.725	373.106	348.263	745.336	367.748	337.311	661.577	231.308	396.621	749.947	226.771	384.621	662.243	235.456	359.661	501.735	265.339	353.788	377.969	265.263	354.549	302.885	150.041	363.739	301.596	211.549	349.878	95.117	149.815	283.979	42.510	324.275	386.770	35.236	217.947	168.418	500.960	237.941	210.904	501.914	246.835	129.512	116.367	242.488	256.529	109.826	238.211	54.783	1091.813	242.087	325.533	1099.344	179.382	149.426	1006.305	186.881	250.313	1003.825	277.843	88.546	871.263	286.979	298.104	866.648
207	2.06000	272.933	5.288	1423.094	334.256	166.218	1412.440	295.899	-7.820	1248.193	221.988	-51.868	1111.298	319.683	-43.694	993.966	325.636	-82.029	890.638	218.889	392.449	1429.040	337.716	231.367	1414.937	130.086	250.155	1313.583	262.867	398.081	1259.409	186.293	425.649	1120.627	269.103	439.091	1007.979	258.968	463.288	888.679	359.811	48.948	957.959	266.810	34.313	1045.561	179.556	200.337	991.461	284.529	357.108	1037.900	375.473	326.754	951.815	370.942	71.362	717.411	356.510	81.262	632.433	243.211	-12.698	640.653	223.652	18.725	496.611	277.063	48.549	360.472	268.920	51.773	287.201	176.147	-5.492	367.017	167.226	-1.200	293.112	209.373	34.473	100.051	144.946	95.472	54.354	333.035	4.714	35.725	373.270	348.202	745.394	367.725	337.130	661.567	231.308	396.621	749.947	226.655	384.513	662.374	235.456	359.661	501.735	265.406	353.693	378.010	265.263	354.505	302.933	150.118	363.741	301.685	211.653	350.105	95.039	149.740	283.974	42.388	324.379	386.799	35.350	218.442	168.377	500.824	237.790	210.987	501.774	246.821	129.594	116.347	242.488	256.529	109.826	238.211	54.783	1091.813	242.474	325.724	1099.601	179.382	149.426	1006.305	187.123	250.193	1003.704	278.035	88.478	871.201	286.972	298.045	866.577
